<svg width="1000" height="1000" version="1.1" xmlns="http://www.w3.org/2000/svg" desc="Created with imagetracer.js version 1.2.6" ><path fill="rgb(0,0,0)" stroke="rgb(0,0,0)" stroke-width="1" opacity="0" d="M 0 0 L 1000 0 L 1000 1000 L 0 1000 L 0 0 Z M 452 266 L 451 267 L 443 267 L 430 270 L 425 270 L 409 274 L 374 287 Q 336 305 309 332 Q 278 361 259 402 L 246 437 L 242 453 L 240 470 L 239 471 L 239 479 L 238 480 L 238 524 L 239 525 L 239 533 L 246 567 L 252 585 Q 271 633 304 667 Q 333 697 374 716 L 409 729 L 425 733 L 442 735 L 443 736 L 451 736 L 452 737 L 496 737 L 497 736 L 505 736 L 539 729 L 557 723 Q 605 704 639 671 Q 669 642 688 602 L 701 567 L 705 551 L 707 534 L 708 533 L 708 525 L 709 524 L 709 480 L 708 479 L 708 471 L 701 437 L 695 419 Q 676 370 643 337 Q 609 301 560 281 L 539 274 L 505 267 L 497 267 L 496 266 L 452 266 Z " /><path fill="rgb(252,250,254)" stroke="rgb(252,250,254)" stroke-width="1" opacity="1" d="M 464 343 L 465.5 343 L 475 352.5 L 662 559.5 L 615.5 560 L 468.5 395 L 347 524.5 L 540.5 525 L 545 529.5 L 567 556.5 L 528.5 557 L 527.5 558 L 426.5 558 L 425.5 559 L 271.5 560 L 280 550.5 L 464 344.5 L 464 343 Z " /><path fill="rgb(126,7,217)" stroke="rgb(126,7,217)" stroke-width="1" opacity="0.9921568627450981" d="M 451.5 266 L 463 266.5 L 451.5 267 L 451.5 266 Z " /><path fill="rgb(126,7,217)" stroke="rgb(126,7,217)" stroke-width="1" opacity="0.9921568627450981" d="M 484.5 266 L 496 266.5 L 484.5 267 L 484.5 266 Z " /><path fill="rgb(126,7,217)" stroke="rgb(126,7,217)" stroke-width="1" opacity="0.9921568627450981" d="M 442.5 267 L 449 267.5 L 442.5 268 L 442.5 267 Z " /><path fill="rgb(126,7,217)" stroke="rgb(126,7,217)" stroke-width="1" opacity="0.9921568627450981" d="M 498.5 267 L 505 267.5 L 498.5 268 L 498.5 267 Z " /><path fill="rgb(126,7,217)" stroke="rgb(126,7,217)" stroke-width="1" opacity="0.9921568627450981" d="M 435.5 268 L 441 268.5 L 430.5 270 L 430.5 269 L 435.5 268 Z " /><path fill="rgb(126,7,217)" stroke="rgb(126,7,217)" stroke-width="1" opacity="0.9921568627450981" d="M 506.5 268 L 517 269.5 L 512.5 270 Q 511.3 267.8 506.5 269 L 506.5 268 Z " /><path fill="rgb(126,7,217)" stroke="rgb(126,7,217)" stroke-width="1" opacity="0.9921568627450981" d="M 424.5 270 L 429 270.5 Q 408 274 390.5 281 L 356.5 297 Q 323 316.5 298 344.5 Q 273 372 257 408.5 L 247 436.5 L 242.5 457 L 242 452.5 L 253 415.5 L 264 391.5 Q 282 357.5 308.5 332 Q 332.5 308.5 363.5 292 Q 390.7 277.7 424.5 270 Z " /><path fill="rgb(126,7,217)" stroke="rgb(126,7,217)" stroke-width="1" opacity="0.9921568627450981" d="M 518.5 270 L 538.5 274 L 559.5 281 L 583.5 292 Q 617.5 310 643 336.5 Q 666.5 360.5 683 391.5 Q 697.3 417.7 704 451.5 L 703 451.5 L 700 436.5 L 694 418.5 L 678 384.5 Q 658.5 351 630.5 326 Q 612.2 309.8 590.5 297 L 556.5 281 L 538.5 275 L 518.5 271 L 518.5 270 Z " /><path fill="rgb(126,7,217)" stroke="rgb(126,7,217)" stroke-width="1" opacity="0.9921568627450981" d="M 704.5 453 L 705 456.5 L 704 456.5 L 704.5 453 Z " /><path fill="rgb(126,7,217)" stroke="rgb(126,7,217)" stroke-width="1" opacity="0.9921568627450981" d="M 241.5 458 L 242 462.5 L 240.5 469 L 240 463.5 L 241.5 458 Z " /><path fill="rgb(126,7,217)" stroke="rgb(126,7,217)" stroke-width="1" opacity="0.9921568627450981" d="M 705.5 458 L 707 468.5 L 706 468.5 L 705.5 458 Z " /><path fill="rgb(126,7,217)" stroke="rgb(126,7,217)" stroke-width="1" opacity="0.9921568627450981" d="M 239.5 470 L 240 476.5 L 239 476.5 L 239.5 470 Z " /><path fill="rgb(126,7,217)" stroke="rgb(126,7,217)" stroke-width="1" opacity="0.9921568627450981" d="M 707.5 470 L 708 476.5 L 707 476.5 L 707.5 470 Z " /><path fill="rgb(126,7,217)" stroke="rgb(126,7,217)" stroke-width="1" opacity="0.9921568627450981" d="M 238.5 479 L 239 490.5 L 238 490.5 L 238.5 479 Z " /><path fill="rgb(126,7,217)" stroke="rgb(126,7,217)" stroke-width="1" opacity="0.9921568627450981" d="M 708.5 479 L 709 490.5 L 708 490.5 L 708.5 479 Z " /><path fill="rgb(126,7,217)" stroke="rgb(126,7,217)" stroke-width="1" opacity="0.9921568627450981" d="M 238.5 512 L 239 523.5 L 238 523.5 L 238.5 512 Z " /><path fill="rgb(126,7,217)" stroke="rgb(126,7,217)" stroke-width="1" opacity="0.9921568627450981" d="M 708.5 512 L 709 523.5 L 708 523.5 L 708.5 512 Z " /><path fill="rgb(126,7,217)" stroke="rgb(126,7,217)" stroke-width="1" opacity="0.9921568627450981" d="M 239.5 526 L 240 532.5 L 239 532.5 L 239.5 526 Z " /><path fill="rgb(126,7,217)" stroke="rgb(126,7,217)" stroke-width="1" opacity="0.9921568627450981" d="M 707.5 526 L 708 532.5 L 707 532.5 L 707.5 526 Z " /><path fill="rgb(126,7,217)" stroke="rgb(126,7,217)" stroke-width="1" opacity="0.9921568627450981" d="M 240.5 534 L 242 544.5 L 241 544.5 L 240.5 534 Z " /><path fill="rgb(126,7,217)" stroke="rgb(126,7,217)" stroke-width="1" opacity="0.9921568627450981" d="M 706.5 534 L 707 539.5 L 705.5 545 L 705 540.5 L 706.5 534 Z " /><path fill="rgb(126,7,217)" stroke="rgb(126,7,217)" stroke-width="1" opacity="0.9921568627450981" d="M 242.5 546 Q 246 567 253 584.5 L 269 618.5 Q 288.5 652 316.5 677 Q 344 702 380.5 718 L 408.5 728 L 429 732.5 L 424.5 733 Q 390.7 725.3 363.5 711 Q 329.5 693 304 666.5 Q 280.5 642.5 264 611.5 Q 253.3 590.7 246 566.5 L 242 550.5 L 242.5 546 Z " /><path fill="rgb(126,7,217)" stroke="rgb(126,7,217)" stroke-width="1" opacity="0.9921568627450981" d="M 704.5 546 L 705 550.5 Q 697.3 584.3 683 611.5 Q 665 645.5 638.5 671 Q 614.5 694.5 583.5 711 Q 557.3 725.3 523.5 732 L 523.5 731 L 538.5 728 L 556.5 722 L 590.5 706 Q 624 686.5 649 658.5 Q 674 631 690 594.5 L 700 566.5 L 704.5 546 Z " /><path fill="rgb(126,7,217)" stroke="rgb(126,7,217)" stroke-width="1" opacity="0.9921568627450981" d="M 518.5 732 L 522 732.5 L 518.5 733 L 518.5 732 Z " /><path fill="rgb(126,7,217)" stroke="rgb(126,7,217)" stroke-width="1" opacity="0.9921568627450981" d="M 430.5 733 L 441 734.5 L 435.5 735 L 430.5 734 L 430.5 733 Z " /><path fill="rgb(126,7,217)" stroke="rgb(126,7,217)" stroke-width="1" opacity="0.9921568627450981" d="M 512.5 733 L 517 733.5 L 506.5 735 L 506.5 734 Q 511.3 735.2 512.5 733 Z " /><path fill="rgb(126,7,217)" stroke="rgb(126,7,217)" stroke-width="1" opacity="0.9921568627450981" d="M 442.5 735 L 449 735.5 L 442.5 736 L 442.5 735 Z " /><path fill="rgb(126,7,217)" stroke="rgb(126,7,217)" stroke-width="1" opacity="0.9921568627450981" d="M 498.5 735 L 505 735.5 L 498.5 736 L 498.5 735 Z " /><path fill="rgb(126,7,217)" stroke="rgb(126,7,217)" stroke-width="1" opacity="0.9921568627450981" d="M 451.5 736 L 463 736.5 L 451.5 737 L 451.5 736 Z " /><path fill="rgb(126,7,217)" stroke="rgb(126,7,217)" stroke-width="1" opacity="0.9921568627450981" d="M 484.5 736 L 496 736.5 L 484.5 737 L 484.5 736 Z " /><path fill="rgb(126,7,217)" stroke="rgb(126,7,217)" stroke-width="1" opacity="1" d="M 463.5 266 L 497.5 267 L 498.5 268 L 517.5 270 Q 544.3 275.2 566.5 285 Q 615.6 306.9 649 344.5 Q 677.4 375.6 694 418.5 L 700 436.5 L 707 469.5 L 708 490.5 L 709 491.5 L 709 511.5 L 708 512.5 L 708 525.5 L 707 526.5 L 707 533.5 L 704 550.5 Q 698.8 574.3 690 594.5 Q 668.1 643.6 630.5 677 Q 599.4 705.4 556.5 722 L 538.5 728 L 505.5 735 L 484.5 736 L 483.5 737 L 463.5 737 L 462.5 736 L 449.5 736 L 448.5 735 L 441.5 735 L 424.5 732 Q 400.7 726.8 380.5 718 Q 331.4 696.1 298 658.5 Q 269.6 627.4 253 584.5 L 247 566.5 L 240 533.5 L 239 512.5 L 238 511.5 L 238 491.5 L 239 490.5 L 239 477.5 L 240 476.5 L 240 469.5 L 243 452.5 Q 248.2 428.7 257 408.5 Q 278.9 359.4 316.5 326 Q 344 301 380.5 285 Q 400.7 276.2 424.5 271 L 441.5 268 L 448.5 268 L 449.5 267 L 462.5 267 L 463.5 266 Z M 464 343 L 464 345 L 280 551 L 272 560 L 426 559 L 427 558 L 528 558 L 529 557 L 567 557 L 545 530 L 541 525 L 347 525 L 469 395 L 616 560 L 662 560 L 475 353 L 466 343 L 464 343 Z " /></svg>